<svg width="1052" height="127" viewBox="0 0 1052 127" fill="none" xmlns="http://www.w3.org/2000/svg">
<path d="M0 100V6.90909H40.1818C47.0909 6.90909 53.1364 8.16666 58.3182 10.6818C63.5 13.197 67.5303 16.8182 70.4091 21.5455C73.2879 26.2727 74.7273 31.9394 74.7273 38.5455C74.7273 45.2121 73.2424 50.8333 70.2727 55.4091C67.3333 59.9848 63.197 63.4394 57.8636 65.7727C52.5606 68.1061 46.3636 69.2727 39.2727 69.2727H15.2727V49.6364H34.1818C37.1515 49.6364 39.6818 49.2727 41.7727 48.5455C43.8939 47.7879 45.5152 46.5909 46.6364 44.9545C47.7879 43.3182 48.3636 41.1818 48.3636 38.5455C48.3636 35.8788 47.7879 33.7121 46.6364 32.0455C45.5152 30.3485 43.8939 29.1061 41.7727 28.3182C39.6818 27.5 37.1515 27.0909 34.1818 27.0909H25.2727V100H0ZM54.5455 57.2727L77.8182 100H50.3636L27.6364 57.2727H54.5455Z" fill="black"/>
<path d="M105.318 101.091C100.864 101.091 96.9242 100.364 93.5 98.9091C90.1061 97.4242 87.4394 95.1818 85.5 92.1818C83.5606 89.1818 82.5909 85.3636 82.5909 80.7273C82.5909 76.9091 83.2424 73.6515 84.5455 70.9545C85.8485 68.2273 87.6667 66 90 64.2727C92.3333 62.5455 95.0455 61.2273 98.1364 60.3182C101.258 59.4091 104.621 58.8182 108.227 58.5455C112.136 58.2424 115.273 57.8788 117.636 57.4545C120.03 57 121.758 56.3788 122.818 55.5909C123.879 54.7727 124.409 53.697 124.409 52.3636V52.1818C124.409 50.3636 123.712 48.9697 122.318 48C120.924 47.0303 119.136 46.5455 116.955 46.5455C114.561 46.5455 112.606 47.0758 111.091 48.1364C109.606 49.1667 108.712 50.7576 108.409 52.9091H85.3182C85.6212 48.6667 86.9697 44.7576 89.3636 41.1818C91.7879 37.5758 95.3182 34.697 99.9545 32.5455C104.591 30.3636 110.379 29.2727 117.318 29.2727C122.318 29.2727 126.803 29.8636 130.773 31.0455C134.742 32.197 138.121 33.8182 140.909 35.9091C143.697 37.9697 145.818 40.3939 147.273 43.1818C148.758 45.9394 149.5 48.9394 149.5 52.1818V100H126.045V90.1818H125.5C124.106 92.7879 122.409 94.8939 120.409 96.5C118.439 98.1061 116.182 99.2727 113.636 100C111.121 100.727 108.348 101.091 105.318 101.091ZM113.5 85.2727C115.409 85.2727 117.197 84.8788 118.864 84.0909C120.561 83.303 121.939 82.1667 123 80.6818C124.061 79.197 124.591 77.3939 124.591 75.2727V69.4545C123.924 69.7273 123.212 69.9848 122.455 70.2273C121.727 70.4697 120.939 70.697 120.091 70.9091C119.273 71.1212 118.394 71.3182 117.455 71.5C116.545 71.6818 115.591 71.8485 114.591 72C112.652 72.303 111.061 72.803 109.818 73.5C108.606 74.1667 107.697 75 107.091 76C106.515 76.9697 106.227 78.0606 106.227 79.2727C106.227 81.2121 106.909 82.697 108.273 83.7273C109.636 84.7576 111.379 85.2727 113.5 85.2727Z" fill="black"/>
<path d="M161.489 30.1818H186.58V102.364C186.58 108.485 185.292 113.273 182.716 116.727C180.17 120.182 176.595 122.621 171.989 124.045C167.383 125.47 162.004 126.182 155.852 126.182C154.943 126.182 154.11 126.167 153.352 126.136C152.564 126.106 151.701 126.061 150.761 126V107.455C151.367 107.515 151.898 107.561 152.352 107.591C152.777 107.621 153.216 107.636 153.67 107.636C156.67 107.636 158.716 107.167 159.807 106.227C160.928 105.318 161.489 103.848 161.489 101.818V30.1818ZM174.034 22.9091C170.64 22.9091 167.731 21.7879 165.307 19.5455C162.883 17.303 161.67 14.6061 161.67 11.4545C161.67 8.30303 162.883 5.60606 165.307 3.36363C167.731 1.12121 170.64 0 174.034 0C177.458 0 180.367 1.12121 182.761 3.36363C185.186 5.60606 186.398 8.30303 186.398 11.4545C186.398 14.6061 185.186 17.303 182.761 19.5455C180.367 21.7879 177.458 22.9091 174.034 22.9091Z" fill="black"/>
<path d="M211.727 100L194.273 30.1818H219.364L227.364 72.7273H227.909L236.818 30.1818H261.182L270.455 72.3636H271L278.636 30.1818H303.727L286.273 100H259.182L249.364 62.5455H248.636L238.818 100H211.727Z" fill="black"/>
<path d="M311.364 100V30.1818H336.455V100H311.364ZM323.909 22.9091C320.515 22.9091 317.606 21.7879 315.182 19.5455C312.758 17.303 311.545 14.6061 311.545 11.4545C311.545 8.30303 312.758 5.60606 315.182 3.36363C317.606 1.12121 320.515 0 323.909 0C327.333 0 330.242 1.12121 332.636 3.36363C335.061 5.60606 336.273 8.30303 336.273 11.4545C336.273 14.6061 335.061 17.303 332.636 19.5455C330.242 21.7879 327.333 22.9091 323.909 22.9091Z" fill="black"/>
<path d="M374.33 60.7273V100H349.239V30.1818H373.057V43.4545H373.784C375.299 39.0303 377.966 35.5606 381.784 33.0455C385.633 30.5303 390.117 29.2727 395.239 29.2727C400.178 29.2727 404.466 30.4091 408.102 32.6818C411.769 34.9242 414.602 38.0151 416.602 41.9545C418.633 45.8939 419.633 50.3939 419.602 55.4545V100H394.511V60.7273C394.542 57.2727 393.663 54.5606 391.875 52.5909C390.117 50.6212 387.663 49.6364 384.511 49.6364C382.451 49.6364 380.648 50.0909 379.102 51C377.587 51.8788 376.42 53.1515 375.602 54.8182C374.784 56.4545 374.36 58.4242 374.33 60.7273Z" fill="black"/>
<path d="M457.261 100.909C452.292 100.909 447.716 99.6061 443.534 97C439.383 94.3939 436.049 90.4394 433.534 85.1364C431.049 79.8333 429.807 73.1515 429.807 65.0909C429.807 56.6667 431.11 49.8182 433.716 44.5455C436.352 39.2727 439.746 35.4091 443.898 32.9545C448.08 30.5 452.473 29.2727 457.08 29.2727C460.534 29.2727 463.564 29.8788 466.17 31.0909C468.777 32.2727 470.958 33.8636 472.716 35.8636C474.473 37.8333 475.807 40 476.716 42.3636H477.08V6.90909H502.17V100H477.261V88.5455H476.716C475.746 90.9091 474.352 93.0303 472.534 94.9091C470.746 96.7576 468.564 98.2273 465.989 99.3182C463.443 100.379 460.534 100.909 457.261 100.909ZM466.534 81.6364C468.837 81.6364 470.807 80.9697 472.443 79.6364C474.11 78.2727 475.383 76.3636 476.261 73.9091C477.17 71.4242 477.625 68.4849 477.625 65.0909C477.625 61.6364 477.17 58.6818 476.261 56.2273C475.383 53.7424 474.11 51.8485 472.443 50.5455C470.807 49.2121 468.837 48.5455 466.534 48.5455C464.231 48.5455 462.261 49.2121 460.625 50.5455C459.019 51.8485 457.777 53.7424 456.898 56.2273C456.049 58.6818 455.625 61.6364 455.625 65.0909C455.625 68.5455 456.049 71.5152 456.898 74C457.777 76.4545 459.019 78.3485 460.625 79.6818C462.261 80.9848 464.231 81.6364 466.534 81.6364Z" fill="black"/>
<path d="M547.943 101.273C540.489 101.273 534.064 99.8485 528.67 97C523.307 94.1212 519.17 90 516.261 84.6364C513.383 79.2424 511.943 72.7879 511.943 65.2727C511.943 58.0606 513.398 51.7576 516.307 46.3636C519.216 40.9697 523.322 36.7727 528.625 33.7727C533.928 30.7727 540.186 29.2727 547.398 29.2727C552.67 29.2727 557.443 30.0909 561.716 31.7273C565.989 33.3636 569.64 35.7424 572.67 38.8636C575.701 41.9545 578.034 45.7121 579.67 50.1364C581.307 54.5606 582.125 59.5455 582.125 65.0909V70.9091H519.761V57.0909H559.034C559.004 55.0909 558.489 53.3333 557.489 51.8182C556.519 50.2727 555.201 49.0758 553.534 48.2273C551.898 47.3485 550.034 46.9091 547.943 46.9091C545.913 46.9091 544.049 47.3485 542.352 48.2273C540.655 49.0758 539.292 50.2576 538.261 51.7727C537.261 53.2879 536.731 55.0606 536.67 57.0909V72C536.67 74.2424 537.14 76.2424 538.08 78C539.019 79.7576 540.367 81.1364 542.125 82.1364C543.883 83.1364 546.004 83.6364 548.489 83.6364C550.216 83.6364 551.792 83.3939 553.216 82.9091C554.67 82.4242 555.913 81.7273 556.943 80.8182C557.973 79.8788 558.731 78.7576 559.216 77.4545H582.125C581.337 82.303 579.474 86.5152 576.534 90.0909C573.595 93.6364 569.701 96.3939 564.852 98.3636C560.034 100.303 554.398 101.273 547.943 101.273Z" fill="black"/>
<path d="M592.364 100V30.1818H616.727V43.4545H617.455C618.727 38.5455 620.742 34.9545 623.5 32.6818C626.288 30.4091 629.545 29.2727 633.273 29.2727C634.364 29.2727 635.439 29.3636 636.5 29.5455C637.591 29.697 638.636 29.9242 639.636 30.2273V51.6364C638.394 51.2121 636.864 50.8939 635.045 50.6818C633.227 50.4697 631.667 50.3636 630.364 50.3636C627.909 50.3636 625.697 50.9242 623.727 52.0455C621.788 53.1364 620.258 54.6818 619.136 56.6818C618.015 58.6515 617.455 60.9697 617.455 63.6364V100H592.364Z" fill="black"/>
<path d="M673 6.90909H704.455L726.091 59.6364H727.182L748.818 6.90909H780.273V100H755.545V46.1818H754.818L734.091 99.2727H719.182L698.455 45.8182H697.727V100H673V6.90909Z" fill="black"/>
<path d="M812.068 101.091C807.614 101.091 803.674 100.364 800.25 98.9091C796.856 97.4242 794.189 95.1818 792.25 92.1818C790.311 89.1818 789.341 85.3636 789.341 80.7273C789.341 76.9091 789.992 73.6515 791.295 70.9545C792.599 68.2273 794.417 66 796.75 64.2727C799.083 62.5455 801.795 61.2273 804.886 60.3182C808.008 59.4091 811.371 58.8182 814.977 58.5455C818.886 58.2424 822.023 57.8788 824.386 57.4545C826.78 57 828.508 56.3788 829.568 55.5909C830.629 54.7727 831.159 53.697 831.159 52.3636V52.1818C831.159 50.3636 830.462 48.9697 829.068 48C827.674 47.0303 825.886 46.5455 823.705 46.5455C821.311 46.5455 819.356 47.0758 817.841 48.1364C816.356 49.1667 815.462 50.7576 815.159 52.9091H792.068C792.371 48.6667 793.72 44.7576 796.114 41.1818C798.538 37.5758 802.068 34.697 806.705 32.5455C811.341 30.3636 817.129 29.2727 824.068 29.2727C829.068 29.2727 833.553 29.8636 837.523 31.0455C841.492 32.197 844.871 33.8182 847.659 35.9091C850.447 37.9697 852.568 40.3939 854.023 43.1818C855.508 45.9394 856.25 48.9394 856.25 52.1818V100H832.795V90.1818H832.25C830.856 92.7879 829.159 94.8939 827.159 96.5C825.189 98.1061 822.932 99.2727 820.386 100C817.871 100.727 815.098 101.091 812.068 101.091ZM820.25 85.2727C822.159 85.2727 823.947 84.8788 825.614 84.0909C827.311 83.303 828.689 82.1667 829.75 80.6818C830.811 79.197 831.341 77.3939 831.341 75.2727V69.4545C830.674 69.7273 829.962 69.9848 829.205 70.2273C828.477 70.4697 827.689 70.697 826.841 70.9091C826.023 71.1212 825.144 71.3182 824.205 71.5C823.295 71.6818 822.341 71.8485 821.341 72C819.402 72.303 817.811 72.803 816.568 73.5C815.356 74.1667 814.447 75 813.841 76C813.265 76.9697 812.977 78.0606 812.977 79.2727C812.977 81.2121 813.659 82.697 815.023 83.7273C816.386 84.7576 818.129 85.2727 820.25 85.2727Z" fill="black"/>
<path d="M893.33 60.7273V100H868.239V6.90909H892.42V43.4545H893.148C894.723 39 897.345 35.5303 901.011 33.0455C904.678 30.5303 909.087 29.2727 914.239 29.2727C919.178 29.2727 923.466 30.3939 927.102 32.6364C930.769 34.8788 933.602 37.9697 935.602 41.9091C937.633 45.8485 938.633 50.3636 938.602 55.4545V100H913.511V60.7273C913.542 57.2727 912.678 54.5606 910.92 52.5909C909.193 50.6212 906.723 49.6364 903.511 49.6364C901.481 49.6364 899.693 50.0909 898.148 51C896.633 51.8788 895.451 53.1515 894.602 54.8182C893.784 56.4545 893.36 58.4242 893.33 60.7273Z" fill="black"/>
<path d="M970.443 101.091C965.989 101.091 962.049 100.364 958.625 98.9091C955.231 97.4242 952.564 95.1818 950.625 92.1818C948.686 89.1818 947.716 85.3636 947.716 80.7273C947.716 76.9091 948.367 73.6515 949.67 70.9545C950.974 68.2273 952.792 66 955.125 64.2727C957.458 62.5455 960.17 61.2273 963.261 60.3182C966.383 59.4091 969.746 58.8182 973.352 58.5455C977.261 58.2424 980.398 57.8788 982.761 57.4545C985.155 57 986.883 56.3788 987.943 55.5909C989.004 54.7727 989.534 53.697 989.534 52.3636V52.1818C989.534 50.3636 988.837 48.9697 987.443 48C986.049 47.0303 984.261 46.5455 982.08 46.5455C979.686 46.5455 977.731 47.0758 976.216 48.1364C974.731 49.1667 973.837 50.7576 973.534 52.9091H950.443C950.746 48.6667 952.095 44.7576 954.489 41.1818C956.913 37.5758 960.443 34.697 965.08 32.5455C969.716 30.3636 975.504 29.2727 982.443 29.2727C987.443 29.2727 991.928 29.8636 995.898 31.0455C999.867 32.197 1003.25 33.8182 1006.03 35.9091C1008.82 37.9697 1010.94 40.3939 1012.4 43.1818C1013.88 45.9394 1014.62 48.9394 1014.62 52.1818V100H991.17V90.1818H990.625C989.231 92.7879 987.534 94.8939 985.534 96.5C983.564 98.1061 981.307 99.2727 978.761 100C976.246 100.727 973.473 101.091 970.443 101.091ZM978.625 85.2727C980.534 85.2727 982.322 84.8788 983.989 84.0909C985.686 83.303 987.064 82.1667 988.125 80.6818C989.186 79.197 989.716 77.3939 989.716 75.2727V69.4545C989.049 69.7273 988.337 69.9848 987.58 70.2273C986.852 70.4697 986.064 70.697 985.216 70.9091C984.398 71.1212 983.519 71.3182 982.58 71.5C981.67 71.6818 980.716 71.8485 979.716 72C977.777 72.303 976.186 72.803 974.943 73.5C973.731 74.1667 972.822 75 972.216 76C971.64 76.9697 971.352 78.0606 971.352 79.2727C971.352 81.2121 972.034 82.697 973.398 83.7273C974.761 84.7576 976.504 85.2727 978.625 85.2727Z" fill="black"/>
<path d="M1051.7 6.90909V100H1026.61V6.90909H1051.7Z" fill="black"/>
</svg>
