<svg width="723" height="97" viewBox="0 0 723 97" fill="none" xmlns="http://www.w3.org/2000/svg">
<path d="M0 95V1.90908H40.1818C47.0909 1.90908 53.1364 3.16666 58.3182 5.68181C63.5 8.19696 67.5303 11.8182 70.4091 16.5454C73.2879 21.2727 74.7273 26.9394 74.7273 33.5454C74.7273 40.2121 73.2424 45.8333 70.2727 50.4091C67.3333 54.9848 63.197 58.4394 57.8636 60.7727C52.5606 63.1061 46.3636 64.2727 39.2727 64.2727H15.2727V44.6364H34.1818C37.1515 44.6364 39.6818 44.2727 41.7727 43.5454C43.8939 42.7879 45.5152 41.5909 46.6364 39.9545C47.7879 38.3182 48.3636 36.1818 48.3636 33.5454C48.3636 30.8788 47.7879 28.7121 46.6364 27.0454C45.5152 25.3485 43.8939 24.1061 41.7727 23.3182C39.6818 22.5 37.1515 22.0909 34.1818 22.0909H25.2727V95H0ZM54.5455 52.2727L77.8182 95H50.3636L27.6364 52.2727H54.5455Z" fill="black"/>
<path d="M135.682 31C135.439 27.9697 134.303 25.6061 132.273 23.9091C130.273 22.2121 127.227 21.3636 123.136 21.3636C120.53 21.3636 118.394 21.6818 116.727 22.3182C115.091 22.9242 113.879 23.7576 113.091 24.8182C112.303 25.8788 111.894 27.0909 111.864 28.4545C111.803 29.5757 112 30.5909 112.455 31.5C112.939 32.3788 113.697 33.1818 114.727 33.9091C115.758 34.6061 117.076 35.2424 118.682 35.8182C120.288 36.3939 122.197 36.9091 124.409 37.3636L132.045 39C137.197 40.0909 141.606 41.5303 145.273 43.3182C148.939 45.106 151.939 47.2121 154.273 49.6364C156.606 52.0303 158.318 54.7273 159.409 57.7273C160.53 60.7273 161.106 64 161.136 67.5454C161.106 73.6667 159.576 78.8485 156.545 83.0909C153.515 87.3333 149.182 90.5606 143.545 92.7727C137.939 94.9848 131.197 96.0909 123.318 96.0909C115.227 96.0909 108.167 94.8939 102.136 92.5C96.1364 90.1061 91.4697 86.4242 88.1364 81.4545C84.8333 76.4545 83.1667 70.0606 83.1364 62.2727H107.136C107.288 65.1212 108 67.5151 109.273 69.4545C110.545 71.3939 112.333 72.8636 114.636 73.8636C116.97 74.8636 119.742 75.3636 122.955 75.3636C125.652 75.3636 127.909 75.0303 129.727 74.3636C131.545 73.697 132.924 72.7727 133.864 71.5909C134.803 70.4091 135.288 69.0606 135.318 67.5454C135.288 66.1212 134.818 64.8788 133.909 63.8182C133.03 62.7273 131.576 61.7576 129.545 60.9091C127.515 60.0303 124.773 59.2121 121.318 58.4545L112.045 56.4545C103.803 54.6667 97.303 51.6818 92.5455 47.5C87.8182 43.2879 85.4697 37.5454 85.5 30.2727C85.4697 24.3636 87.0455 19.197 90.2273 14.7727C93.4394 10.3182 97.8788 6.84847 103.545 4.36362C109.242 1.87878 115.773 0.636353 123.136 0.636353C130.652 0.636353 137.152 1.89393 142.636 4.40908C148.121 6.92423 152.348 10.4697 155.318 15.0454C158.318 19.5909 159.833 24.9091 159.864 31H135.682Z" fill="black"/>
<path d="M170.75 1.90908H202.205L223.841 54.6364H224.932L246.568 1.90908H278.023V95H253.295V41.1818H252.568L231.841 94.2727H216.932L196.205 40.8182H195.477V95H170.75V1.90908Z" fill="black"/>
<path d="M299.972 18.5454V12.8182H322.727V18.5454H314.852V39H307.847V18.5454H299.972Z" fill="black"/>
<path d="M325.402 39V12.8182H332.51V23.0454H341.919V12.8182H349.027V39H341.919V28.7727H332.51V39H325.402Z" fill="black"/>
<path d="M352.402 39V12.8182H371.272V18.5454H359.51V23.0454H370.3V28.7727H359.51V33.2727H371.221V39H352.402Z" fill="black"/>
<path d="M396.082 21C396.014 20.1477 395.695 19.4829 395.124 19.0057C394.561 18.5284 393.705 18.2898 392.554 18.2898C391.821 18.2898 391.22 18.3792 390.751 18.5582C390.291 18.7287 389.95 18.963 389.729 19.2613C389.507 19.5596 389.392 19.9005 389.384 20.2841C389.366 20.5994 389.422 20.8849 389.55 21.1406C389.686 21.3878 389.899 21.6136 390.189 21.8182C390.479 22.0142 390.849 22.1932 391.301 22.3551C391.753 22.517 392.29 22.6619 392.912 22.7898L395.06 23.25C396.509 23.5568 397.749 23.9616 398.78 24.4645C399.811 24.9673 400.655 25.5596 401.311 26.2415C401.967 26.9148 402.449 27.6733 402.756 28.517C403.071 29.3608 403.233 30.2812 403.242 31.2784C403.233 33 402.803 34.4574 401.95 35.6505C401.098 36.8437 399.879 37.7514 398.294 38.3736C396.717 38.9957 394.821 39.3068 392.605 39.3068C390.33 39.3068 388.344 38.9701 386.648 38.2969C384.96 37.6236 383.648 36.588 382.71 35.1903C381.781 33.7841 381.313 31.9858 381.304 29.7954H388.054C388.097 30.5966 388.297 31.2699 388.655 31.8153C389.013 32.3608 389.516 32.7741 390.163 33.0554C390.82 33.3366 391.599 33.4772 392.503 33.4772C393.261 33.4772 393.896 33.3835 394.408 33.196C394.919 33.0085 395.307 32.7486 395.571 32.4162C395.835 32.0838 395.972 31.7045 395.98 31.2784C395.972 30.8778 395.84 30.5284 395.584 30.2301C395.337 29.9233 394.928 29.6505 394.357 29.4119C393.786 29.1648 393.014 28.9346 392.043 28.7216L389.435 28.1591C387.117 27.6562 385.288 26.8167 383.95 25.6406C382.621 24.4559 381.96 22.8409 381.969 20.7954C381.96 19.1335 382.403 17.6804 383.298 16.4361C384.202 15.1832 385.45 14.2074 387.044 13.5085C388.646 12.8096 390.483 12.4602 392.554 12.4602C394.668 12.4602 396.496 12.8139 398.038 13.5213C399.581 14.2287 400.77 15.2258 401.605 16.5128C402.449 17.7912 402.875 19.2869 402.884 21H396.082Z" fill="black"/>
<path d="M413.053 12.8182V39H405.945V12.8182H413.053Z" fill="black"/>
<path d="M415.706 18.5454V12.8182H438.462V18.5454H430.587V39H423.581V18.5454H415.706Z" fill="black"/>
<path d="M441.137 39V12.8182H460.006V18.5454H448.245V23.0454H459.034V28.7727H448.245V33.2727H459.955V39H441.137Z" fill="black"/>
<path d="M326.051 69.9091C326.051 72.8238 325.484 75.2827 324.351 77.2855C323.217 79.2798 321.688 80.7926 319.761 81.8238C317.835 82.8466 315.688 83.3579 313.318 83.3579C310.932 83.3579 308.776 82.8423 306.849 81.8111C304.932 80.7713 303.406 79.2542 302.273 77.2599C301.148 75.2571 300.585 72.8068 300.585 69.9091C300.585 66.9943 301.148 64.5398 302.273 62.5454C303.406 60.5426 304.932 59.0298 306.849 58.0071C308.776 56.9758 310.932 56.4602 313.318 56.4602C315.688 56.4602 317.835 56.9758 319.761 58.0071C321.688 59.0298 323.217 60.5426 324.351 62.5454C325.484 64.5398 326.051 66.9943 326.051 69.9091ZM318.739 69.9091C318.739 68.3409 318.53 67.0199 318.112 65.946C317.703 64.8636 317.094 64.0454 316.284 63.4915C315.483 62.929 314.494 62.6477 313.318 62.6477C312.142 62.6477 311.149 62.929 310.34 63.4915C309.538 64.0454 308.929 64.8636 308.511 65.946C308.102 67.0199 307.898 68.3409 307.898 69.9091C307.898 71.4772 308.102 72.8025 308.511 73.8849C308.929 74.9588 309.538 75.777 310.34 76.3395C311.149 76.8934 312.142 77.1704 313.318 77.1704C314.494 77.1704 315.483 76.8934 316.284 76.3395C317.094 75.777 317.703 74.9588 318.112 73.8849C318.53 72.8025 318.739 71.4772 318.739 69.9091Z" fill="black"/>
<path d="M329.34 83V56.8182H347.749V62.5454H336.448V67.0454H346.624V72.7727H336.448V83H329.34Z" fill="black"/>
<path d="M357.535 83V56.8182H368.836C370.78 56.8182 372.48 57.1719 373.937 57.8792C375.395 58.5866 376.528 59.6051 377.338 60.9346C378.147 62.2642 378.552 63.8579 378.552 65.7159C378.552 67.5909 378.135 69.1719 377.299 70.4588C376.473 71.7457 375.309 72.7173 373.809 73.3736C372.318 74.0298 370.575 74.3579 368.581 74.3579H361.831V68.8352H367.149C367.984 68.8352 368.696 68.7329 369.284 68.5284C369.88 68.3153 370.336 67.9787 370.652 67.5184C370.976 67.0582 371.137 66.4574 371.137 65.7159C371.137 64.9659 370.976 64.3565 370.652 63.8878C370.336 63.4105 369.88 63.0611 369.284 62.8395C368.696 62.6093 367.984 62.4943 367.149 62.4943H364.643V83H357.535ZM372.876 70.9829L379.422 83H371.7L365.308 70.9829H372.876Z" fill="black"/>
<path d="M388.383 83H380.713L389.355 56.8182H399.071L407.713 83H400.042L394.315 64.0284H394.11L388.383 83ZM386.951 72.6704H401.372V77.9886H386.951V72.6704Z" fill="black"/>
<path d="M421.024 56.8182H428.03V74.767C428.021 76.4716 427.591 77.9716 426.739 79.267C425.895 80.554 424.727 81.5596 423.236 82.2841C421.753 83 420.044 83.3579 418.109 83.3579C416.43 83.3579 414.896 83.0682 413.507 82.4886C412.118 81.9005 411.01 80.9801 410.183 79.7272C409.357 78.4659 408.947 76.8295 408.956 74.8182H416.064C416.09 75.4744 416.2 76.0284 416.396 76.4801C416.601 76.9318 416.882 77.2727 417.24 77.5028C417.607 77.7244 418.05 77.8352 418.57 77.8352C419.098 77.8352 419.541 77.7201 419.899 77.49C420.266 77.2599 420.543 76.919 420.73 76.4673C420.918 76.0071 421.016 75.4403 421.024 74.767V56.8182Z" fill="black"/>
<path d="M438.046 83L430.325 56.8182H438.251L441.83 72.9261H442.035L446.279 56.8182H452.518L456.762 72.9772H456.967L460.546 56.8182H468.472L460.751 83H453.95L449.501 68.375H449.296L444.847 83H438.046Z" fill="black"/>
<path d="M477.881 56.8182V83H470.773V56.8182H477.881Z" fill="black"/>
<path d="M503.903 56.8182V83H497.972L488.511 69.2443H488.358V83H481.25V56.8182H487.284L496.591 70.5227H496.795V56.8182H503.903Z" fill="black"/>
<path d="M517.34 83H507.266V56.8182H517.237C519.93 56.8182 522.257 57.3423 524.217 58.3906C526.186 59.4304 527.703 60.9304 528.768 62.8906C529.842 64.8423 530.379 67.1818 530.379 69.9091C530.379 72.6363 529.847 74.9801 528.781 76.9403C527.716 78.892 526.207 80.392 524.256 81.4403C522.304 82.4801 519.999 83 517.34 83ZM514.374 76.9659H517.084C518.379 76.9659 519.483 76.7571 520.395 76.3395C521.315 75.9218 522.014 75.2017 522.492 74.179C522.977 73.1562 523.22 71.7329 523.22 69.9091C523.22 68.0852 522.973 66.6619 522.479 65.6392C521.993 64.6165 521.277 63.8963 520.331 63.4787C519.393 63.0611 518.243 62.8522 516.879 62.8522H514.374V76.9659Z" fill="black"/>
<path d="M533.668 83V56.8182H552.537V62.5454H540.776V67.0454H551.566V72.7727H540.776V77.2727H552.486V83H533.668Z" fill="black"/>
<path d="M556.062 83V56.8182H567.364C569.307 56.8182 571.007 57.1719 572.464 57.8792C573.922 58.5866 575.055 59.6051 575.865 60.9346C576.675 62.2642 577.08 63.8579 577.08 65.7159C577.08 67.5909 576.662 69.1719 575.827 70.4588C575 71.7457 573.837 72.7173 572.337 73.3736C570.845 74.0298 569.102 74.3579 567.108 74.3579H560.358V68.8352H565.676C566.511 68.8352 567.223 68.7329 567.811 68.5284C568.408 68.3153 568.864 67.9787 569.179 67.5184C569.503 67.0582 569.665 66.4574 569.665 65.7159C569.665 64.9659 569.503 64.3565 569.179 63.8878C568.864 63.4105 568.408 63.0611 567.811 62.8395C567.223 62.6093 566.511 62.4943 565.676 62.4943H563.17V83H556.062ZM571.403 70.9829L577.949 83H570.227L563.835 70.9829H571.403Z" fill="black"/>
<path d="M587.281 56.8182H596.128L602.213 71.6477H602.52L608.605 56.8182H617.452V83H610.497V67.8636H610.293L604.463 82.7954H600.27L594.44 67.7613H594.236V83H587.281V56.8182Z" fill="black"/>
<path d="M627.621 83H619.951L628.593 56.8182H638.309L646.951 83H639.281L633.553 64.0284H633.349L627.621 83ZM626.19 72.6704H640.61V77.9886H626.19V72.6704Z" fill="black"/>
<path d="M649.473 83V56.8182H656.581V67.0454H665.99V56.8182H673.098V83H665.99V72.7727H656.581V83H649.473Z" fill="black"/>
<path d="M683.274 83H675.603L684.245 56.8182H693.961L702.603 83H694.933L689.206 64.0284H689.001L683.274 83ZM681.842 72.6704H696.262V77.9886H681.842V72.6704Z" fill="black"/>
<path d="M705.125 83V56.8182H712.233V77.2727H722.818V83H705.125Z" fill="black"/>
</svg>
