<svg xmlns="http://www.w3.org/2000/svg" width="980" height="128" fill="none"><path fill="#000" d="M0 126.289h16.349V75.722H37.55c11.24 0 19.953-3.48 26.14-10.439 6.245-6.959 9.367-15.971 9.367-27.037 0-10.895-3.037-19.708-9.111-26.439-6.074-6.73-14.845-10.096-26.311-10.096H0V126.29Zm16.349-62.717V14.545h18.903c7.89.057 13.425 2.34 16.604 6.845 3.179 4.45 4.768 10.296 4.768 17.54 0 7.245-1.59 13.177-4.768 17.797-3.18 4.564-8.714 6.845-16.604 6.845H16.349Zm43.34 62.717h18.137L48.024 66.652l-15.667 3.08 27.332 56.557ZM84.127 93.177c0 11.465 3.605 20.135 10.814 26.01 7.266 5.875 16.774 8.813 28.525 8.813 11.694 0 21.032-3.08 28.014-9.241 6.982-6.217 10.473-14.517 10.473-24.898 0-9.583-2.696-17.284-8.089-23.102-5.393-5.875-13.794-10.866-25.204-14.973-10.388-3.822-17.456-7.387-21.202-10.695-3.747-3.309-5.62-7.73-5.62-13.262 0-5.932 1.675-10.638 5.024-14.118 3.349-3.48 8.713-5.219 16.093-5.219 6.982 0 12.29 1.94 15.923 5.818 3.633 3.879 5.449 9.212 5.449 16v3.85h15.327v-4.705c0-10.724-3.377-18.967-10.133-24.728C142.823 2.91 133.911 0 122.785 0c-11.41 0-20.379 3.023-26.907 9.07-6.472 6.046-9.707 13.975-9.707 23.786 0 10.096 2.753 17.796 8.26 23.101 5.562 5.248 14.105 10.01 25.629 14.289 10.275 3.822 17.228 7.444 20.861 10.866 3.633 3.423 5.45 8.043 5.45 13.861 0 6.332-1.987 11.38-5.96 15.145-3.974 3.764-9.679 5.647-17.115 5.647-7.437 0-13.255-1.911-17.456-5.733-4.144-3.879-6.216-9.782-6.216-17.711v-5.476H84.127v6.332ZM177.791 126.289h15.412V36.107c0-1.94-.085-4.364-.256-7.273-.113-2.909-.17-4.82-.17-5.732h.426c.057.912.454 2.823 1.192 5.732.795 2.91 1.504 5.334 2.129 7.273l31.164 90.182h15.242l30.909-90.182a186.256 186.256 0 0 0 1.873-6.417 73.754 73.754 0 0 0 1.618-6.588h.426c-.171 1.939-.284 4.107-.341 6.502v96.685h16.178V1.711h-22.734l-31.761 91.722c-.624 1.94-1.22 3.879-1.788 5.818a59.91 59.91 0 0 0-1.448 5.904h-.425a59.91 59.91 0 0 0-1.448-5.904 226.66 226.66 0 0 0-1.788-5.818L200.27 1.711h-22.479V126.29ZM347.578 7.647h13.57v41.294h6.642V7.647h13.507V2.225h-33.719v5.422ZM386.118 48.941h6.61V27.572h20.021v21.37h6.609V2.224h-6.609v19.828h-20.021V2.226h-6.61V48.94ZM427.948 48.941h27.524v-5.358H434.43V27.54h17.721v-5.198H434.43V7.647h20.691V2.225h-27.173V48.94ZM472.747 36.332c0 4.32 1.447 7.636 4.342 9.946 2.917 2.289 6.727 3.433 11.432 3.433 4.725 0 8.482-1.187 11.271-3.561 2.81-2.375 4.215-5.54 4.215-9.498 0-3.743-1.086-6.706-3.257-8.887-2.171-2.182-5.513-4.011-10.026-5.487-4.258-1.39-7.11-2.674-8.558-3.85-1.447-1.177-2.171-2.76-2.171-4.749 0-2.16.66-3.872 1.98-5.134 1.341-1.262 3.448-1.893 6.322-1.893 2.767 0 4.864.717 6.29 2.15 1.448 1.433 2.172 3.38 2.172 5.84v1.09h6.354V14.45c0-4.021-1.352-7.187-4.055-9.497-2.704-2.332-6.301-3.497-10.793-3.497-4.577 0-8.174 1.165-10.793 3.497-2.597 2.331-3.895 5.358-3.895 9.08 0 3.765 1.064 6.652 3.193 8.663 2.15 1.99 5.513 3.744 10.09 5.262 4.215 1.412 7.046 2.749 8.494 4.01 1.469 1.242 2.203 2.92 2.203 5.038 0 2.29-.788 4.129-2.363 5.52-1.554 1.368-3.789 2.053-6.705 2.053-2.938 0-5.226-.696-6.866-2.086-1.639-1.412-2.458-3.54-2.458-6.385v-1.444h-6.418v1.669ZM510.776 48.941h6.642V2.225h-6.642V48.94ZM522.112 7.647h13.57v41.294h6.642V7.647h13.507V2.225h-33.719v5.422ZM560.652 48.941h27.525v-5.358h-21.043V27.54h17.722v-5.198h-17.722V7.647h20.691V2.225h-27.173V48.94ZM349.909 103.594c0 7.743 1.692 13.476 5.077 17.197 3.406 3.722 7.791 5.583 13.155 5.583 5.386 0 9.771-1.861 13.156-5.583 3.406-3.721 5.109-9.454 5.109-17.197v-2.696c0-7.743-1.703-13.475-5.109-17.197-3.385-3.722-7.77-5.583-13.156-5.583-5.364 0-9.749 1.86-13.155 5.583-3.385 3.722-5.077 9.454-5.077 17.197v2.696Zm6.769.802v-4.268c0-5.796 1.033-10.032 3.097-12.706 2.087-2.695 4.875-4.042 8.366-4.042 3.491 0 6.269 1.347 8.334 4.043 2.086 2.673 3.129 6.909 3.129 12.705v4.268c0 5.797-1.043 10.043-3.129 12.738-2.065 2.673-4.843 4.01-8.334 4.01-3.491 0-6.279-1.337-8.366-4.01-2.064-2.695-3.097-6.941-3.097-12.738ZM393.59 125.604h6.61v-20.695h16.508v-5.23H400.2V84.31h18.967v-5.422H393.59v46.716ZM438.357 125.604h6.61v-18.738h8.11c4.556 0 8.089-1.294 10.601-3.882 2.534-2.61 3.8-6.021 3.8-10.235 0-4.193-1.245-7.551-3.736-10.075-2.469-2.524-6.013-3.786-10.633-3.786h-14.752v46.716Zm6.61-23.743V84.086h7.536c3.086 0 5.247.823 6.482 2.47 1.234 1.626 1.851 3.743 1.851 6.353 0 2.588-.617 4.727-1.851 6.417-1.235 1.69-3.396 2.535-6.482 2.535h-7.536Zm17.211 23.743h7.312l-11.463-22.363-6.482 1.026 10.633 21.337ZM470.033 125.604h6.418l11.303-35.743c.256-.813.469-1.54.639-2.182.191-.663.372-1.337.543-2.021h.159c.192.684.373 1.358.543 2.021.17.642.383 1.37.639 2.182l11.431 35.743h6.737l-15.518-46.845h-7.312l-15.582 46.845Zm7.28-11.839h23.661l-1.469-4.974H478.75l-1.437 4.974ZM511.415 112.225c0 4.577 1.203 8.085 3.608 10.524 2.427 2.417 5.79 3.625 10.09 3.625 4.385 0 7.759-1.337 10.122-4.01 2.385-2.674 3.577-6.439 3.577-11.294V78.888h-6.61v32.438c0 3.465-.639 5.979-1.916 7.54-1.256 1.54-3.033 2.31-5.332 2.31-2.406 0-4.215-.737-5.429-2.213-1.192-1.476-1.788-3.722-1.788-6.738v-1.059h-6.322v1.059ZM554.17 125.829h6.897l8.749-35.134a27.43 27.43 0 0 0 .352-1.636c.127-.6.234-1.23.319-1.893h.192c.085.663.181 1.294.287 1.893.128.599.255 1.144.383 1.636l8.749 35.134h6.865l10.857-46.941h-6.099l-7.6 34.748a39.98 39.98 0 0 0-.287 1.54 147.61 147.61 0 0 0-.223 1.829h-.192a36.188 36.188 0 0 0-.255-1.796 10.869 10.869 0 0 0-.32-1.573l-8.653-34.748h-6.833l-8.462 34.748a22.619 22.619 0 0 0-.319 1.573c-.085.492-.171 1.08-.256 1.764h-.223c-.085-.684-.16-1.272-.224-1.764a14.406 14.406 0 0 0-.287-1.573l-7.759-34.748h-6.546l10.888 46.941ZM602.929 125.604h6.641V78.888h-6.641v46.716ZM618.383 125.604h5.939v-32.31c0-.727-.01-1.476-.032-2.246 0-.791-.021-1.54-.063-2.246h.191c.213.642.468 1.305.767 1.99.298.684.617 1.347.957 1.989l18.105 32.823h6.865V78.888h-5.939v34.492c0 .77.022 1.508.064 2.214h-.192a23.382 23.382 0 0 0-.766-1.99 25.317 25.317 0 0 0-.99-2.021l-17.945-32.695h-6.961v46.716ZM659.702 125.604h13.187c5.918 0 10.623-1.957 14.114-5.871 3.491-3.915 5.236-9.305 5.236-16.172v-2.663c0-6.887-1.767-12.278-5.3-16.17-3.513-3.894-8.196-5.84-14.05-5.84h-13.187v46.716Zm6.514-5.165V84.118h6.418c3.938.021 7.067 1.444 9.387 4.267 2.342 2.824 3.513 6.888 3.513 12.193v3.336c0 5.284-1.139 9.359-3.417 12.225-2.278 2.866-5.439 4.3-9.483 4.3h-6.418ZM699.424 125.604h27.524v-5.358h-21.042v-16.043h17.721v-5.198h-17.721V84.31h20.691v-5.422h-27.173v46.716ZM732.632 125.604h6.609v-18.738h8.111c4.555 0 8.089-1.294 10.601-3.882 2.533-2.61 3.8-6.021 3.8-10.235 0-4.193-1.246-7.551-3.736-10.075-2.47-2.524-6.014-3.786-10.633-3.786h-14.752v46.716Zm6.609-23.743V84.086h7.536c3.087 0 5.247.823 6.482 2.47 1.235 1.626 1.852 3.743 1.852 6.353 0 2.588-.617 4.727-1.852 6.417-1.235 1.69-3.395 2.535-6.482 2.535h-7.536Zm17.211 23.743h7.312l-11.463-22.363-6.482 1.026 10.633 21.337ZM782.444 125.604h6.067V92.332c0-.706-.022-1.551-.064-2.535a34.595 34.595 0 0 0-.096-2.182h.192c.064.47.223 1.198.479 2.182.276.984.542 1.829.798 2.535l11.942 33.272h5.907l11.942-33.272c.235-.706.469-1.487.703-2.343.255-.855.458-1.647.607-2.374h.191a36.75 36.75 0 0 0-.128 2.374 96.29 96.29 0 0 0-.032 2.343v33.272h6.482V78.888h-8.876l-12.326 34.042a82.16 82.16 0 0 0-.67 2.118 23.26 23.26 0 0 0-.543 2.182h-.192a23.575 23.575 0 0 0-.542-2.182 40.684 40.684 0 0 0-.703-2.118l-12.325-34.042h-8.813v46.716ZM831.617 125.604h6.418l11.304-35.743c.255-.813.468-1.54.639-2.182.191-.663.372-1.337.542-2.021h.16c.192.684.373 1.358.543 2.021.17.642.383 1.37.639 2.182l11.431 35.743h6.737l-15.518-46.845H847.2l-15.583 46.845Zm7.281-11.839h23.66l-1.468-4.974h-20.755l-1.437 4.974ZM874.022 125.604h6.609v-21.369h20.021v21.369h6.61V78.888h-6.61v19.829h-20.021v-19.83h-6.609v46.717ZM911.381 125.604h6.418l11.303-35.743c.256-.813.469-1.54.639-2.182.191-.663.372-1.337.543-2.021h.159c.192.684.373 1.358.543 2.021.17.642.383 1.37.639 2.182l11.431 35.743h6.737l-15.518-46.845h-7.312l-15.582 46.845Zm7.28-11.839h23.661l-1.469-4.974h-20.755l-1.437 4.974ZM953.785 125.604H980v-5.422h-19.606V78.888h-6.609v46.716Z"/></svg>