<svg xmlns="http://www.w3.org/2000/svg" width="288" height="128" fill="none"><path fill="#000" d="M0 126.289h16.037V75.722h20.798c11.026 0 19.573-3.48 25.643-10.439 6.125-6.959 9.188-15.971 9.188-27.037 0-10.895-2.98-19.708-8.938-26.439-5.958-6.73-14.56-10.096-25.81-10.096H0V126.29Zm16.037-62.717V14.545H34.58c7.74.057 13.17 2.34 16.288 6.845 3.118 4.45 4.677 10.296 4.677 17.54 0 7.245-1.559 13.177-4.677 17.797-3.119 4.564-8.548 6.845-16.288 6.845H16.037Zm42.515 62.717h17.791L47.11 66.652l-15.369 3.08 26.812 56.557ZM82.524 93.177c0 11.465 3.536 20.135 10.608 26.01 7.128 5.875 16.455 8.813 27.982 8.813 11.471 0 20.631-3.08 27.48-9.241 6.849-6.217 10.274-14.517 10.274-24.898 0-9.583-2.645-17.284-7.935-23.102-5.29-5.875-13.532-10.866-24.724-14.973-10.19-3.822-17.123-7.387-20.798-10.695-3.675-3.309-5.513-7.73-5.513-13.262 0-5.932 1.643-10.638 4.928-14.118 3.285-3.48 8.548-5.219 15.787-5.219 6.849 0 12.055 1.94 15.619 5.818 3.564 3.879 5.346 9.212 5.346 16v3.85h15.035v-4.705c0-10.724-3.314-18.967-9.94-24.728C140.102 2.91 131.36 0 120.445 0c-11.192 0-19.99 3.023-26.394 9.07-6.348 6.046-9.522 13.975-9.522 23.786 0 10.096 2.7 17.796 8.102 23.101 5.457 5.248 13.838 10.01 25.142 14.289 10.079 3.822 16.9 7.444 20.464 10.866 3.563 3.423 5.345 8.043 5.345 13.861 0 6.332-1.949 11.38-5.846 15.145-3.898 3.764-9.495 5.647-16.789 5.647-7.295 0-13.003-1.911-17.123-5.733-4.065-3.879-6.098-9.782-6.098-17.711v-5.476H82.524v6.332ZM174.404 126.289h15.118V36.107c0-1.94-.083-4.364-.251-7.273-.111-2.909-.167-4.82-.167-5.732h.418c.056.912.446 2.823 1.169 5.732.78 2.91 1.476 5.334 2.089 7.273l30.57 90.182h14.952l30.32-90.182a189.054 189.054 0 0 0 1.837-6.417 74.44 74.44 0 0 0 1.587-6.588h.418c-.167 1.939-.278 4.107-.334 6.502v96.685H288V1.711h-22.302l-31.155 91.722a229.583 229.583 0 0 0-1.754 5.818 60.806 60.806 0 0 0-1.42 5.904h-.418a60.806 60.806 0 0 0-1.42-5.904 229.583 229.583 0 0 0-1.754-5.818L196.455 1.711h-22.051V126.29Z"/></svg>