<svg width="279" height="97" viewBox="0 0 279 97" fill="none" xmlns="http://www.w3.org/2000/svg">
<path d="M0 95V1.90908H40.1818C47.0909 1.90908 53.1364 3.16666 58.3182 5.68181C63.5 8.19696 67.5303 11.8182 70.4091 16.5454C73.2879 21.2727 74.7273 26.9394 74.7273 33.5454C74.7273 40.2121 73.2424 45.8333 70.2727 50.4091C67.3333 54.9848 63.197 58.4394 57.8636 60.7727C52.5606 63.1061 46.3636 64.2727 39.2727 64.2727H15.2727V44.6364H34.1818C37.1515 44.6364 39.6818 44.2727 41.7727 43.5454C43.8939 42.7879 45.5152 41.5909 46.6364 39.9545C47.7879 38.3182 48.3636 36.1818 48.3636 33.5454C48.3636 30.8788 47.7879 28.7121 46.6364 27.0454C45.5152 25.3485 43.8939 24.1061 41.7727 23.3182C39.6818 22.5 37.1515 22.0909 34.1818 22.0909H25.2727V95H0ZM54.5455 52.2727L77.8182 95H50.3636L27.6364 52.2727H54.5455Z" fill="black"/>
<path d="M135.682 31C135.439 27.9697 134.303 25.6061 132.273 23.9091C130.273 22.2121 127.227 21.3636 123.136 21.3636C120.53 21.3636 118.394 21.6818 116.727 22.3182C115.091 22.9242 113.879 23.7576 113.091 24.8182C112.303 25.8788 111.894 27.0909 111.864 28.4545C111.803 29.5757 112 30.5909 112.455 31.5C112.939 32.3788 113.697 33.1818 114.727 33.9091C115.758 34.6061 117.076 35.2424 118.682 35.8182C120.288 36.3939 122.197 36.9091 124.409 37.3636L132.045 39C137.197 40.0909 141.606 41.5303 145.273 43.3182C148.939 45.106 151.939 47.2121 154.273 49.6364C156.606 52.0303 158.318 54.7273 159.409 57.7273C160.53 60.7273 161.106 64 161.136 67.5454C161.106 73.6667 159.576 78.8485 156.545 83.0909C153.515 87.3333 149.182 90.5606 143.545 92.7727C137.939 94.9848 131.197 96.0909 123.318 96.0909C115.227 96.0909 108.167 94.8939 102.136 92.5C96.1364 90.1061 91.4697 86.4242 88.1364 81.4545C84.8333 76.4545 83.1667 70.0606 83.1364 62.2727H107.136C107.288 65.1212 108 67.5151 109.273 69.4545C110.545 71.3939 112.333 72.8636 114.636 73.8636C116.97 74.8636 119.742 75.3636 122.955 75.3636C125.652 75.3636 127.909 75.0303 129.727 74.3636C131.545 73.697 132.924 72.7727 133.864 71.5909C134.803 70.4091 135.288 69.0606 135.318 67.5454C135.288 66.1212 134.818 64.8788 133.909 63.8182C133.03 62.7273 131.576 61.7576 129.545 60.9091C127.515 60.0303 124.773 59.2121 121.318 58.4545L112.045 56.4545C103.803 54.6667 97.303 51.6818 92.5455 47.5C87.8182 43.2879 85.4697 37.5454 85.5 30.2727C85.4697 24.3636 87.0455 19.197 90.2273 14.7727C93.4394 10.3182 97.8788 6.84847 103.545 4.36362C109.242 1.87878 115.773 0.636353 123.136 0.636353C130.652 0.636353 137.152 1.89393 142.636 4.40908C148.121 6.92423 152.348 10.4697 155.318 15.0454C158.318 19.5909 159.833 24.9091 159.864 31H135.682Z" fill="black"/>
<path d="M170.75 1.90908H202.205L223.841 54.6364H224.932L246.568 1.90908H278.023V95H253.295V41.1818H252.568L231.841 94.2727H216.932L196.205 40.8182H195.477V95H170.75V1.90908Z" fill="black"/>
</svg>
