<svg xmlns="http://www.w3.org/2000/svg" width="400" height="400" fill="none"><path fill="#000" d="M0 0h400v400H0V0Z"/><path fill="#fff" d="M230.442 155.221h30.17l20.753 50.573h1.046l20.753-50.573h30.169v89.288h-23.717v-51.62h-.698l-19.88 50.923h-14.3l-19.881-51.271h-.697v51.968h-23.718v-89.288ZM196.806 183.123c-.232-2.906-1.322-5.173-3.269-6.801-1.919-1.628-4.84-2.441-8.764-2.441-2.499 0-4.548.305-6.147.915-1.569.582-2.732 1.381-3.488 2.398-.755 1.017-1.148 2.18-1.177 3.488-.058 1.075.131 2.049.567 2.921.465.843 1.192 1.613 2.18 2.311.988.668 2.252 1.279 3.793 1.831 1.54.552 3.371 1.046 5.493 1.482l7.325 1.57c4.941 1.046 9.17 2.427 12.687 4.141 3.517 1.715 6.394 3.735 8.632 6.061 2.238 2.296 3.88 4.883 4.927 7.76 1.075 2.877 1.627 6.017 1.656 9.417-.029 5.871-1.497 10.841-4.403 14.911-2.907 4.069-7.063 7.164-12.469 9.286-5.377 2.122-11.844 3.183-19.401 3.183-7.761 0-14.533-1.148-20.317-3.445-5.755-2.296-10.231-5.827-13.428-10.594-3.168-4.796-4.767-10.928-4.796-18.398h23.02c.145 2.732.828 5.028 2.049 6.888 1.221 1.86 2.936 3.27 5.145 4.229 2.238.959 4.897 1.439 7.978 1.439 2.587 0 4.752-.32 6.496-.959 1.744-.64 3.067-1.526 3.968-2.66a6.275 6.275 0 0 0 1.395-3.88c-.029-1.366-.48-2.558-1.352-3.575-.843-1.046-2.238-1.976-4.185-2.79-1.948-.843-4.578-1.628-7.891-2.354l-8.894-1.919c-7.906-1.715-14.141-4.578-18.704-8.589-4.534-4.04-6.787-9.547-6.758-16.523-.029-5.668 1.483-10.624 4.535-14.867 3.08-4.273 7.339-7.601 12.774-9.984 5.464-2.383 11.728-3.575 18.79-3.575 7.209 0 13.443 1.206 18.704 3.619 5.261 2.412 9.315 5.813 12.164 10.202 2.877 4.359 4.33 9.46 4.36 15.302h-23.195ZM66.667 244.509v-89.288h38.54c6.627 0 12.426 1.206 17.396 3.618 4.97 2.413 8.836 5.886 11.597 10.42 2.761 4.534 4.142 9.97 4.142 16.306 0 6.394-1.425 11.786-4.273 16.175-2.819 4.389-6.787 7.702-11.902 9.94-5.087 2.238-11.03 3.357-17.832 3.357h-23.02v-18.834h18.137c2.849 0 5.276-.349 7.281-1.047 2.035-.726 3.59-1.874 4.665-3.444 1.105-1.569 1.657-3.618 1.657-6.147 0-2.558-.552-4.636-1.657-6.235-1.075-1.627-2.63-2.819-4.665-3.575-2.005-.784-4.432-1.177-7.28-1.177h-8.546v69.931h-24.24Zm52.317-40.982 22.322 40.982h-26.333l-21.799-40.982h25.81Z"/></svg>