<svg width="400" height="138" viewBox="0 0 400 138" fill="none" xmlns="http://www.w3.org/2000/svg">
<path d="M245.663 1.83111H290.918L322.047 77.6915H323.616L354.745 1.83111H400V135.764H364.424V58.334H363.378L333.557 134.718H312.107L282.286 57.8108H281.239V135.764H245.663V1.83111Z" fill="black"/>
<path d="M195.21 43.6851C194.861 39.3253 193.226 35.9247 190.305 33.4832C187.427 31.0417 183.046 29.821 177.16 29.821C173.411 29.821 170.337 30.2788 167.939 31.1943C165.585 32.0663 163.841 33.2652 162.707 34.7911C161.574 36.3171 160.985 38.061 160.942 40.0229C160.855 41.636 161.138 43.0965 161.792 44.4045C162.489 45.6688 163.579 46.8242 165.062 47.8705C166.544 48.8733 168.441 49.7888 170.751 50.6172C173.062 51.4455 175.809 52.1867 178.991 52.8407L189.978 55.195C197.39 56.7645 203.733 58.8354 209.008 61.4077C214.284 63.9799 218.6 67.01 221.957 70.4978C225.314 73.9421 227.777 77.8223 229.347 82.1385C230.96 86.4547 231.788 91.1633 231.832 96.2642C231.788 105.071 229.587 112.526 225.227 118.63C220.867 124.734 214.633 129.377 206.523 132.559C198.458 135.742 188.757 137.333 177.422 137.333C165.781 137.333 155.623 135.611 146.947 132.167C138.314 128.723 131.6 123.426 126.805 116.276C122.052 109.082 119.654 99.8828 119.611 88.6782H154.14C154.358 92.7764 155.383 96.2206 157.214 99.0109C159.045 101.801 161.617 103.916 164.931 105.354C168.288 106.793 172.277 107.512 176.899 107.512C180.779 107.512 184.027 107.033 186.643 106.074C189.259 105.115 191.242 103.785 192.594 102.085C193.945 100.384 194.643 98.4441 194.686 96.2642C194.643 94.2151 193.967 92.4276 192.659 90.9017C191.395 89.3321 189.302 87.937 186.381 86.7163C183.46 85.4519 179.514 84.2748 174.544 83.1848L161.203 80.3074C149.345 77.7351 139.993 73.4407 133.148 67.4242C126.347 61.3641 122.968 53.1023 123.012 42.6388C122.968 34.1372 125.235 26.7037 129.813 20.3384C134.434 13.9295 140.821 8.93757 148.974 5.36254C157.17 1.78751 166.566 0 177.16 0C187.972 0 197.324 1.80931 205.215 5.42794C213.107 9.04657 219.189 14.1475 223.461 20.7308C227.777 27.2705 229.957 34.9219 230.001 43.6851H195.21Z" fill="black"/>
<path d="M0 135.764V1.83111H57.8108C67.7512 1.83111 76.449 3.64043 83.9042 7.25906C91.3594 10.8777 97.158 16.0876 101.3 22.8889C105.442 29.6902 107.512 37.843 107.512 47.3473C107.512 56.9389 105.376 65.0263 101.104 71.6096C96.8746 78.1929 90.9235 83.163 83.2502 86.5201C75.6206 89.8771 66.7048 91.5556 56.5029 91.5556H21.9734V63.3042H49.1785C53.451 63.3042 57.0915 62.781 60.0997 61.7347C63.1516 60.6447 65.4841 58.9226 67.0972 56.5683C68.7539 54.214 69.5823 51.1404 69.5823 47.3473C69.5823 43.5107 68.7539 40.3935 67.0972 37.9956C65.4841 35.5541 63.1516 33.7666 60.0997 32.633C57.0915 31.4559 53.451 30.8673 49.1785 30.8673H36.3607V135.764H0ZM78.4763 74.2908L111.959 135.764H72.4597L39.7613 74.2908H78.4763Z" fill="black"/>
</svg>
